<?xml version="1.0" encoding="UTF-8" standalone="no"?>
<!-- Created with Inkscape (http://www.inkscape.org/) -->

<svg
   width="7.8757672in"
   height="1.3927839in"
   viewBox="0 0 200.04449 35.376711"
   version="1.1"
   id="svg1"
   xml:space="preserve"
   xmlns="http://www.w3.org/2000/svg"
   xmlns:svg="http://www.w3.org/2000/svg"><defs
     id="defs1"><rect
       x="481.65784"
       y="471.77429"
       width="35.580742"
       height="36.898548"
       id="rect1" /></defs><g
     id="layer1"
     transform="translate(-4.2173855,-99.082781)"><path
       style="fill:#0d7d34;fill-opacity:1;stroke-width:0.266691"
       d="m 91.214338,347.60006 c -7.294512,-1.31649 -13.486062,-6.88911 -15.356627,-13.82152 -0.768649,-2.84865 -0.64827,-7.63203 0.258763,-10.28223 1.531693,-4.47534 5.07664,-8.58209 9.259271,-10.72669 2.967992,-1.5218 4.918992,-2.08616 7.963001,-2.30343 l 2.397078,-0.17109 2.019756,-8.40077 2.019756,-8.40077 -1.518401,-0.8209 c -5.202932,-2.81291 -8.894841,-7.57414 -10.013408,-12.91369 -1.285083,-6.13442 0.860438,-12.58939 5.673184,-17.06823 2.298369,-2.13891 4.194408,-3.28285 7.222899,-4.35782 2.19911,-0.78058 2.56399,-0.82975 6.20356,-0.83601 3.32412,-0.006 4.14651,0.0811 5.85781,0.61848 8.43284,2.64801 13.79176,9.46911 13.96594,17.77656 0.0246,1.17344 0.0831,1.86351 0.12996,1.53347 0.0469,-0.33003 0.18571,-0.60005 0.30853,-0.60005 0.12282,0 4.51002,0.90008 9.74934,2.00018 5.23932,1.1001 9.67509,2.00019 9.85726,2.00019 0.18217,0 0.79078,-0.78582 1.35247,-1.74626 3.35569,-5.73798 9.10669,-9.26137 16.11784,-9.87471 l 2.00074,-0.17503 2.0716,-8.97003 c 1.13938,-4.93352 2.06921,-9.0535 2.06629,-9.15551 -0.003,-0.10201 -0.87538,-0.63944 -1.93881,-1.19428 -1.36772,-0.71361 -2.64262,-1.71286 -4.35683,-3.41485 -2.65943,-2.64046 -3.69287,-4.24614 -4.80986,-7.47318 -0.642,-1.85477 -0.74039,-2.55167 -0.75302,-5.33383 -0.0119,-2.63034 0.0962,-3.55651 0.60728,-5.20047 1.6106,-5.18085 5.0022,-9.12828 10.00953,-11.64993 2.8157,-1.41797 5.4044,-2.00894 8.83711,-2.01743 3.69071,-0.009 5.89521,0.50011 9.20084,2.12537 2.12624,1.0454 2.92299,1.63386 4.95574,3.66024 1.97089,1.96471 2.629,2.83693 3.5323,4.68145 1.26336,2.5798 1.80968,4.54563 2.10638,7.57952 l 0.20657,2.11236 9.20085,1.94775 c 5.06046,1.07126 9.34431,1.95087 9.51966,1.95468 0.17535,0.004 0.772,-0.86314 1.32589,-1.92657 0.70255,-1.34886 1.69939,-2.63008 3.29666,-4.23716 1.98398,-1.99616 2.66134,-2.48387 5.0747,-3.65387 3.61975,-1.75486 6.2444,-2.30086 10.10688,-2.10249 8.65466,0.44449 15.94526,6.22781 18.06129,14.32725 0.60371,2.31079 0.59987,6.51454 -0.008,8.80081 -1.75594,6.60381 -7.14931,11.89223 -14.04065,13.76742 -2.38612,0.64928 -7.74193,0.65026 -10.13427,0.002 -4.04831,-1.09722 -7.96205,-3.60252 -10.47982,-6.70843 -2.48499,-3.06547 -4.18819,-7.70111 -4.18819,-11.39911 v -1.42714 l -9.40086,-2.05512 c -5.17047,-1.13032 -9.48002,-2.05331 -9.57677,-2.05109 -0.0968,0.002 -0.66849,0.90152 -1.27051,1.99844 -3.22411,5.8745 -9.53073,9.7451 -16.39559,10.06257 l -1.84053,0.0851 -2.32899,9.12493 -2.32898,9.12493 1.46978,0.67289 c 6.37752,2.91972 10.61257,9.12903 10.94154,16.04215 0.21105,4.43499 -0.8592,7.95708 -3.5739,11.76138 -2.43439,3.41149 -7.22227,6.45556 -11.66811,7.41841 -2.70871,0.58664 -7.7845,0.41082 -10.16556,-0.35211 -7.81308,-2.50345 -13.10312,-8.91451 -13.69373,-16.59555 l -0.1742,-2.26563 -9.8009,-2.24584 c -9.77295,-2.23943 -9.80092,-2.2478 -9.80723,-2.93485 -0.005,-0.50844 -0.17309,-0.28347 -0.64262,0.85839 -1.07572,2.61607 -2.32596,4.41219 -4.58021,6.57998 -3.46551,3.33261 -7.66354,5.15606 -12.7063,5.51911 l -2.33403,0.16803 -0.25118,0.96013 c -0.13816,0.52806 -0.98186,4.0804 -1.8749,7.89409 -0.89305,3.81368 -1.71597,7.1029 -1.82873,7.30938 -0.1524,0.27908 0.31175,0.63574 1.80871,1.38985 6.13682,3.09147 9.97863,8.88313 10.32789,15.56966 0.18115,3.46797 -0.33142,5.92274 -1.89335,9.0675 -2.79816,5.63373 -8.44909,9.61254 -14.933161,10.51439 -2.596314,0.36111 -3.756207,0.33486 -6.416381,-0.14524 z m 8.020721,-7.33001 c 6.602571,-2.45013 9.639071,-9.61791 6.698021,-15.81094 -3.56534,-7.50758 -13.588698,-9.16997 -19.544315,-3.24146 -3.758854,3.74175 -4.536302,8.83556 -2.066024,13.53651 2.730548,5.19624 9.262675,7.6124 14.912318,5.51589 z m 69.198571,-40.64127 c 3.2229,-0.40424 6.80073,-3.14869 8.4468,-6.47927 0.9782,-1.97927 1.00237,-2.10004 0.99563,-4.97594 -0.006,-2.73162 -0.0671,-3.07435 -0.82841,-4.68092 -2.0796,-4.38824 -6.12099,-6.93397 -11.00779,-6.93397 -3.50598,0 -6.11935,1.02855 -8.5822,3.3777 -5.81523,5.54679 -4.24419,15.02536 3.09128,18.65075 1.81632,0.89767 4.44772,1.45603 5.99966,1.27307 0.3667,-0.0432 1.21496,-0.14737 1.88503,-0.23142 z m -57.80837,-12.0002 c 3.60492,-0.93896 6.48109,-3.26357 7.99665,-6.46312 0.8091,-1.70813 0.85571,-1.97388 0.85571,-4.87908 0,-2.9615 -0.0331,-3.13983 -0.91619,-4.93379 -2.84516,-5.77996 -10.02661,-8.34732 -15.98127,-5.7133 -9.088477,4.02027 -9.312212,16.60628 -0.37609,21.1566 2.34047,1.19178 5.74871,1.52878 8.42119,0.83269 z m 127.98348,-30.57412 c 3.43234,-0.73456 6.87286,-3.38437 8.2828,-6.37924 3.84925,-8.17619 -2.78008,-17.49676 -11.86331,-16.67934 -7.49995,0.67493 -12.57203,7.50554 -10.77512,14.51091 1.57774,6.1509 7.91722,9.92557 14.35563,8.54767 z m -55.97101,-12.53841 c 8.32719,-2.75078 10.76413,-13.2473 4.46952,-19.25134 -2.682,-2.55819 -5.36282,-3.51984 -9.24612,-3.31672 -2.03499,0.10644 -2.76351,0.27325 -4.26783,0.97721 -4.81375,2.25263 -7.32471,6.38957 -6.975,11.49173 0.52638,7.67967 8.37156,12.6255 16.01943,10.09912 z"
       id="path22610"
       transform="matrix(0.26458333,0,0,0.26458333,-0.62600125,42.359418)" /><path
       style="fill:#0d7d34;fill-opacity:1;stroke-width:0.266691"
       d="m 91.290183,347.61287 c -6.962468,-1.25954 -13.083729,-6.46128 -15.198636,-12.91553 -0.784627,-2.39452 -0.963024,-7.16215 -0.364238,-9.73423 0.905453,-3.88935 3.637643,-8.03045 6.896353,-10.45259 3.300087,-2.45289 7.841629,-4.08207 11.379297,-4.08207 1.084425,0 1.66662,-0.11486 1.755445,-0.34634 0.07309,-0.19048 1.010636,-4.00083 2.083424,-8.46744 l 1.950524,-8.12111 -1.526909,-0.8209 c -5.170373,-2.77973 -8.904585,-7.59078 -10.02327,-12.91369 -1.783107,-8.48434 3.235767,-17.54372 11.602633,-20.94349 5.899924,-2.39735 12.748514,-1.83218 18.344024,1.51382 1.97118,1.17872 4.8375,3.97283 6.08642,5.93308 1.82706,2.86767 3.20108,7.85722 2.94556,10.69634 -0.0396,0.44004 -0.0195,0.59005 0.0446,0.33336 0.0642,-0.25669 0.19831,-0.46667 0.29812,-0.46662 0.0998,4e-5 4.47438,0.90012 9.72126,2.00018 5.24689,1.10005 9.70149,2.0001 9.8991,2.0001 0.19761,0 0.81886,-0.78582 1.38055,-1.74626 3.35756,-5.74118 9.10599,-9.26123 16.12729,-9.87557 l 2.0102,-0.17588 2.06337,-8.96918 c 1.13485,-4.93304 2.06044,-9.04833 2.05684,-9.14508 -0.004,-0.0968 -0.90909,-0.67128 -2.01223,-1.27671 -4.14052,-2.27245 -7.64869,-6.46226 -9.08806,-10.85388 -0.67274,-2.05258 -0.77389,-2.76273 -0.77324,-5.42846 6e-4,-2.45938 0.12378,-3.46319 0.62181,-5.06713 1.55534,-5.00915 4.92175,-8.99274 9.70193,-11.48066 2.98255,-1.55232 5.59048,-2.17709 9.14396,-2.19058 5.94514,-0.0226 10.82989,2.09644 14.85528,6.44423 2.87059,3.10051 4.28484,6.31766 4.83454,10.99772 l 0.32075,2.73072 9.06313,1.93412 c 4.98472,1.06377 9.2666,1.94116 9.5153,1.94976 0.298,0.0103 0.79491,-0.64359 1.45743,-1.91787 1.42408,-2.73907 4.8294,-6.09434 7.69128,-7.57825 3.64267,-1.88877 5.57311,-2.35599 9.73422,-2.35599 3.02833,0 3.91811,0.0992 5.60052,0.62455 6.82027,2.12962 11.76891,7.13042 13.50948,13.65186 0.6066,2.27281 0.5954,6.46686 -0.0235,8.79237 -1.7546,6.59291 -7.15966,11.90084 -14.01936,13.76742 -2.38612,0.64928 -7.74193,0.65026 -10.13427,0.002 -4.04831,-1.09722 -7.96205,-3.60252 -10.47982,-6.70843 -2.4853,-3.06585 -4.18819,-7.7011 -4.18819,-11.4002 v -1.42824 l -9.40086,-2.05531 c -5.17047,-1.13042 -9.48002,-2.05292 -9.57677,-2.04999 -0.0968,0.003 -0.66849,0.9028 -1.27051,1.99972 -3.20564,5.84084 -9.59614,9.75597 -16.42188,10.06083 l -1.86684,0.0834 -2.30183,9.12706 -2.30183,9.12705 1.46892,0.6725 c 6.5662,3.0061 11.00213,9.83578 11.00213,16.93918 0,10.30365 -8.74862,18.66837 -19.52514,18.66837 -3.39807,0 -5.89037,-0.56212 -8.87747,-2.00225 -6.27951,-3.02746 -10.24605,-8.67378 -10.76013,-15.31694 l -0.1742,-2.25115 -1.86684,-0.45754 c -1.02676,-0.25165 -5.43717,-1.2694 -9.8009,-2.26167 -7.87584,-1.7909 -7.9341,-1.80918 -7.94039,-2.49179 -0.005,-0.5111 -0.16567,-0.30027 -0.62693,0.82115 -1.08193,2.63038 -2.05036,4.02947 -4.4216,6.38788 -3.56556,3.54626 -7.65804,5.37381 -12.8747,5.74939 -1.80521,0.12997 -2.35726,0.26356 -2.45782,0.59477 -0.0713,0.23494 -0.91388,3.72747 -1.87234,7.76117 -0.95845,4.0337 -1.84156,7.56687 -1.96246,7.85148 -0.1896,0.44633 0.0212,0.6332 1.53355,1.35915 3.69677,1.77454 7.15231,5.268 8.94145,9.03957 5.35847,11.2958 -2.25023,24.47075 -15.169933,26.26771 -2.57931,0.35875 -3.756682,0.33407 -6.337634,-0.13283 z m 6.238963,-6.81219 c 2.160731,-0.45447 4.075734,-1.47018 5.824664,-3.08938 6.7733,-6.27089 3.84313,-17.31252 -5.220806,-19.67338 -6.944957,-1.80893 -13.8013,2.51988 -15.087186,9.52543 -0.64074,3.49077 0.580493,7.18582 3.263784,9.87515 2.949251,2.95587 7.156675,4.21672 11.219544,3.36218 z m 71.686364,-41.34277 c 3.14631,-0.7107 6.29417,-3.35435 7.81366,-6.56213 0.79962,-1.68806 0.8538,-1.98859 0.8538,-4.73604 0,-2.73826 -0.0555,-3.04903 -0.83361,-4.66709 -2.27948,-4.7402 -6.4261,-7.14228 -11.87617,-6.87972 -3.19612,0.15398 -5.37556,1.0915 -7.70696,3.31528 -5.84375,5.574 -4.25955,15.18884 3.07665,18.67278 2.789,1.3245 5.44211,1.58664 8.67263,0.85692 z m -58.59025,-11.82933 c 6.04311,-1.57403 9.75974,-6.98127 8.93644,-13.00141 -0.87929,-6.42946 -7.28046,-10.96316 -13.90655,-9.84948 -3.96968,0.66721 -7.308579,3.12073 -9.025529,6.63222 -0.848882,1.73612 -0.887513,1.94863 -0.887513,4.88208 0,2.94756 0.03537,3.13933 0.908686,4.92644 2.512142,5.14075 8.428616,7.85466 13.974466,6.41015 z m 128.39506,-30.65031 c 2.31025,-0.61502 3.84809,-1.50255 5.55458,-3.2057 4.63359,-4.62452 4.63347,-11.66629 -2.7e-4,-16.30004 -7.23692,-7.23692 -19.9908,-2.62131 -20.6199,7.46231 -0.29908,4.79396 2.12477,8.94954 6.52777,11.19157 2.31103,1.17679 5.9525,1.54012 8.53782,0.85186 z m -56.27058,-12.44582 c 7.96735,-2.73846 10.5355,-12.76037 4.81882,-18.80491 -2.48326,-2.62568 -5.34632,-3.84054 -9.05104,-3.84054 -4.86591,0 -8.81219,2.48612 -10.97717,6.91551 -0.80631,1.64966 -0.85637,1.92405 -0.85736,4.69939 -10e-4,2.86482 0.0267,3.00366 0.9905,4.95369 2.73448,5.53285 9.14329,8.11608 15.07625,6.07686 z"
       id="path22606"
       transform="matrix(0.26458333,0,0,0.26458333,-0.62600125,42.359418)" /><path
       style="fill:#0d7d34;fill-opacity:1;stroke-width:0.266691"
       d="m 91.214338,347.60006 c -4.113728,-0.74243 -7.955373,-2.8438 -10.894153,-5.95906 -3.355437,-3.55694 -4.982961,-7.60428 -4.976005,-12.37437 0.0047,-3.24887 0.49983,-5.52416 1.756108,-8.07053 1.904843,-3.86095 5.183746,-7.01208 9.24665,-8.88632 2.690796,-1.24128 4.196181,-1.63153 7.127116,-1.84763 l 2.265694,-0.16705 2.023095,-8.40077 2.023094,-8.40077 -1.523701,-0.8209 c -5.199001,-2.80101 -8.899418,-7.57068 -10.018709,-12.91369 -1.781849,-8.50576 3.221714,-17.53856 11.601279,-20.94349 5.899924,-2.39735 12.748514,-1.83218 18.344024,1.51382 1.97118,1.17872 4.8375,3.97283 6.08642,5.93308 1.82706,2.86767 3.20108,7.85722 2.94556,10.69634 -0.0396,0.44004 -0.0195,0.59005 0.0446,0.33336 0.0642,-0.25669 0.21316,-0.46671 0.33113,-0.46671 0.11796,0 4.50119,0.90008 9.74051,2.00018 5.23932,1.1001 9.67906,2.00019 9.86609,2.00019 0.18702,0 0.79961,-0.78582 1.3613,-1.74626 3.35614,-5.73875 9.10652,-9.26133 16.12013,-9.87492 l 2.00303,-0.17524 2.07201,-8.96982 c 1.13961,-4.9334 2.06841,-9.05329 2.06401,-9.1553 -0.004,-0.10201 -0.85668,-0.63144 -1.89395,-1.17651 -2.39538,-1.25874 -5.57656,-4.21413 -7.18758,-6.67745 -0.71276,-1.08984 -1.57757,-2.91645 -2.02024,-4.26706 -0.67274,-2.05258 -0.77389,-2.76273 -0.77324,-5.42846 6e-4,-2.45938 0.12378,-3.46319 0.62181,-5.06713 1.59984,-5.15244 5.02638,-9.14084 10.00878,-11.64993 2.8157,-1.41797 5.4044,-2.00894 8.83711,-2.01743 3.69071,-0.009 5.89521,0.50011 9.20084,2.12537 2.12624,1.0454 2.92299,1.63386 4.95574,3.66024 1.97089,1.96471 2.629,2.83693 3.5323,4.68145 1.26365,2.58039 1.80978,4.54599 2.10638,7.58117 l 0.20657,2.114 9.20085,1.94906 c 5.06046,1.07198 9.34431,1.95085 9.51966,1.95304 0.17535,0.002 0.772,-0.8661 1.32589,-1.92953 1.43783,-2.76056 4.84274,-6.11951 7.68948,-7.58567 3.66043,-1.88524 5.58081,-2.34857 9.73422,-2.34857 3.02833,0 3.91811,0.0992 5.60052,0.62455 6.80553,2.12502 11.83159,7.19871 13.51531,13.64342 0.60371,2.31079 0.59987,6.51454 -0.008,8.80081 -1.74768,6.57277 -7.18171,11.90105 -14.04065,13.76742 -2.38612,0.64928 -7.74193,0.65026 -10.13427,0.002 -4.04831,-1.09722 -7.96205,-3.60252 -10.47982,-6.70843 -2.4853,-3.06585 -4.18819,-7.7011 -4.18819,-11.4002 v -1.42824 l -9.40086,-2.05531 c -5.17047,-1.13042 -9.48002,-2.05292 -9.57677,-2.04999 -0.0968,0.003 -0.66521,0.89683 -1.26323,1.98646 -3.26186,5.94327 -9.59562,9.77418 -16.69586,10.09832 l -1.60014,0.073 -2.30665,9.1179 -2.30666,9.1179 1.47375,0.6747 c 9.53915,4.36717 13.72134,15.76557 9.13065,24.88528 -2.65171,5.26781 -7.56254,9.04692 -13.42715,10.33282 -2.85783,0.62662 -7.81443,0.43089 -10.2989,-0.40669 -7.84019,-2.64315 -12.97011,-8.89301 -13.56039,-16.52084 l -0.1742,-2.25115 -1.86684,-0.45754 c -1.02676,-0.25165 -5.43717,-1.2694 -9.8009,-2.26167 -7.87584,-1.7909 -7.9341,-1.80918 -7.94039,-2.49179 -0.005,-0.50627 -0.17417,-0.27949 -0.64262,0.85975 -1.74459,4.24272 -5.15857,7.88293 -9.29677,9.91283 -2.9223,1.43347 -4.84636,1.95996 -7.98974,2.18626 l -2.33403,0.16803 -0.25217,0.96013 c -0.1387,0.52806 -0.98322,4.0804 -1.87673,7.89409 -0.8935,3.81368 -1.71598,7.1029 -1.82773,7.30938 -0.15079,0.27862 0.31606,0.636 1.81053,1.38598 4.9957,2.50705 8.77976,7.31753 9.98433,12.69257 2.35633,10.51444 -5.26785,20.90297 -16.485853,22.46325 -2.593346,0.3607 -3.753909,0.33435 -6.413479,-0.14564 z m 6.145609,-6.7937 c 2.254551,-0.4154 4.165103,-1.40195 5.993863,-3.09506 6.7733,-6.27089 3.84313,-17.31252 -5.220806,-19.67338 -4.297304,-1.1193 -8.609141,0.0466 -11.744239,3.17554 -2.764624,2.75921 -3.993142,6.41461 -3.342537,9.94557 1.228731,6.66856 7.508626,10.90116 14.313719,9.64733 z m 71.073683,-41.17758 c 3.2229,-0.40424 6.80073,-3.14869 8.4468,-6.47927 0.97609,-1.97498 1.00254,-2.10627 1.00254,-4.97594 0,-2.75375 -0.0548,-3.06134 -0.83361,-4.68092 -2.28294,-4.74741 -6.46644,-7.16607 -11.89085,-6.87461 -3.17848,0.17077 -5.39368,1.11768 -7.65038,3.27021 -5.8717,5.60065 -4.36651,15.03798 2.97734,18.66751 1.87946,0.92888 4.48814,1.49011 6.06313,1.30444 0.3667,-0.0432 1.21496,-0.14737 1.88503,-0.23142 z m -57.80837,-12.0002 c 3.60492,-0.93896 6.48109,-3.26357 7.99665,-6.46312 0.8091,-1.70813 0.85571,-1.97388 0.85571,-4.87908 0,-2.9615 -0.0331,-3.13983 -0.91619,-4.93379 -4.41727,-8.9737 -17.53283,-8.93943 -21.931809,0.0573 -0.848882,1.73612 -0.887513,1.94863 -0.887513,4.88208 0,2.93345 0.03863,3.14596 0.887513,4.88208 2.524712,5.16352 8.453909,7.89795 13.995639,6.45451 z m 128.39506,-30.65031 c 2.31025,-0.61502 3.84809,-1.50255 5.55458,-3.2057 3.63365,-3.62653 4.46288,-8.43383 2.26496,-13.13067 -2.54605,-5.44078 -9.30548,-8.07987 -15.14527,-5.9132 -8.13922,3.01981 -10.449,13.21872 -4.33932,19.16042 3.00699,2.92432 7.65779,4.15595 11.66505,3.08915 z m -56.44247,-12.4136 c 8.30821,-2.56912 10.82533,-13.29467 4.5294,-19.29996 -2.67271,-2.54934 -5.34348,-3.51142 -9.19614,-3.31271 -3.88557,0.20041 -6.80972,1.69366 -9.02449,4.60847 -1.69429,2.2298 -2.19086,3.82801 -2.19826,7.07508 -0.006,2.71634 0.0281,2.8843 0.98513,4.82035 2.72742,5.5177 8.78575,8.0008 14.90436,6.10877 z"
       id="path22607"
       transform="matrix(0.26458333,0,0,0.26458333,-0.62600125,42.359418)" /><path
       style="fill:#0d7d34;fill-opacity:1;stroke-width:0.266691"
       d="m 91.214338,347.60006 c -4.113728,-0.74243 -7.955373,-2.8438 -10.894153,-5.95906 -3.355437,-3.55694 -4.982961,-7.60428 -4.976005,-12.37437 0.0047,-3.24788 0.499809,-5.52412 1.754689,-8.06766 3.001419,-6.08363 9.278295,-10.24457 16.188182,-10.73114 l 2.452951,-0.17273 2.029553,-8.40077 2.029552,-8.40077 -1.530286,-0.8209 c -5.194268,-2.78641 -8.9051,-7.56637 -10.025294,-12.91369 -1.285083,-6.13442 0.860438,-12.58939 5.673184,-17.06823 3.707067,-3.44987 7.584549,-5.06669 12.626389,-5.26491 5.99025,-0.23549 10.8165,1.55187 14.93639,5.5316 2.17792,2.10382 3.54841,4.19535 4.55335,6.94895 0.7556,2.07037 1.37801,5.74084 1.20763,7.12151 -0.0496,0.402 -0.038,0.52088 0.0257,0.26419 0.0637,-0.25669 0.2005,-0.46671 0.30389,-0.46671 0.10338,0 4.49055,0.90008 9.74926,2.00018 5.25871,1.1001 9.71038,2.00019 9.89259,2.00019 0.18221,0 0.79086,-0.78582 1.35255,-1.74626 3.35666,-5.73964 9.10632,-9.2613 16.12274,-9.87516 l 2.00564,-0.17547 2.06629,-8.96958 c 1.13645,-4.93328 2.06408,-9.05306 2.0614,-9.15507 -0.003,-0.10201 -0.87498,-0.63944 -1.93841,-1.19428 -1.36772,-0.71361 -2.64262,-1.71286 -4.35683,-3.41485 -2.65739,-2.63845 -3.68998,-4.24189 -4.8126,-7.47318 -0.65922,-1.89746 -0.74057,-2.5024 -0.73525,-5.46717 0.005,-2.8806 0.10195,-3.62359 0.71216,-5.46717 1.65356,-4.99582 4.9763,-8.77558 9.88962,-11.24989 2.8157,-1.41797 5.4044,-2.00894 8.83711,-2.01743 3.66615,-0.009 5.86748,0.49613 9.19236,2.10958 2.14465,1.04072 2.89127,1.59183 4.95573,3.65797 3.55578,3.55867 5.13006,6.98325 5.64717,12.28444 l 0.20657,2.11776 8.53412,1.80329 c 4.69376,0.9918 8.97305,1.87765 9.50954,1.96855 l 0.97542,0.16527 1.01719,-1.95279 c 1.44848,-2.78075 4.84332,-6.13386 7.69961,-7.60494 3.66043,-1.88524 5.58081,-2.34857 9.73422,-2.34857 3.02833,0 3.91811,0.0992 5.60052,0.62455 6.80553,2.12502 11.83159,7.19871 13.51531,13.64342 0.60356,2.31021 0.59455,6.50965 -0.0189,8.80081 -1.77702,6.63725 -7.12973,11.88985 -14.02982,13.76742 -2.38612,0.64928 -7.74193,0.65026 -10.13427,0.002 -4.04831,-1.09722 -7.96205,-3.60252 -10.47982,-6.70843 -2.4853,-3.06585 -4.18819,-7.7011 -4.18819,-11.4002 v -1.42824 l -9.40086,-2.05531 c -5.17047,-1.13042 -9.48002,-2.05292 -9.57677,-2.04999 -0.0968,0.003 -0.66521,0.89683 -1.26323,1.98646 -3.26238,5.94422 -9.61437,9.78505 -16.69586,10.0954 l -1.60014,0.0701 -2.30183,9.12304 -2.30183,9.12302 1.46892,0.6725 c 6.37663,2.91932 10.61174,9.12904 10.94069,16.04176 0.21105,4.43499 -0.8592,7.95708 -3.5739,11.76138 -2.43439,3.41149 -7.22227,6.45556 -11.66811,7.41841 -2.86685,0.62088 -7.82969,0.42166 -10.29011,-0.41308 -7.90848,-2.68308 -12.97581,-8.85242 -13.56918,-16.52011 l -0.1742,-2.25115 -1.86684,-0.45754 c -1.02676,-0.25165 -5.43717,-1.2694 -9.8009,-2.26167 -7.87584,-1.7909 -7.9341,-1.80918 -7.94039,-2.49179 -0.005,-0.50627 -0.17417,-0.27949 -0.64262,0.85975 -1.07572,2.61607 -2.32596,4.41219 -4.58021,6.57998 -3.46551,3.33261 -7.66354,5.15606 -12.7063,5.51911 l -2.33403,0.16803 -0.25217,0.96013 c -0.1387,0.52806 -0.98322,4.0804 -1.87673,7.89409 -0.8935,3.81368 -1.71598,7.1029 -1.82773,7.30938 -0.15079,0.2786 0.31614,0.6362 1.81053,1.38662 3.41597,1.71535 6.76922,5.00025 8.41615,8.24464 2.4694,4.86459 2.62398,10.92293 0.39998,15.67552 -2.89449,6.18538 -8.50006,10.28678 -15.364252,11.2415 -2.545713,0.35408 -3.717164,0.32609 -6.36688,-0.15212 z m 8.020721,-7.33001 c 6.602571,-2.45013 9.639071,-9.61791 6.698021,-15.81094 -3.56534,-7.50758 -13.588698,-9.16997 -19.544315,-3.24146 -3.758854,3.74175 -4.536302,8.83556 -2.066024,13.53651 2.730548,5.19624 9.262675,7.6124 14.912318,5.51589 z m 69.198571,-40.64127 c 3.2229,-0.40424 6.80073,-3.14869 8.4468,-6.47927 0.97609,-1.97498 1.00254,-2.10627 1.00254,-4.97594 0,-2.74881 -0.0559,-3.06424 -0.82951,-4.68092 -2.10601,-4.40113 -6.12906,-6.93397 -11.0136,-6.93397 -3.50598,0 -6.11935,1.02855 -8.5822,3.3777 -5.81523,5.54679 -4.24419,15.02536 3.09128,18.65075 1.81632,0.89767 4.44772,1.45603 5.99966,1.27307 0.3667,-0.0432 1.21496,-0.14737 1.88503,-0.23142 z m -57.80837,-12.0002 c 3.60492,-0.93896 6.48109,-3.26357 7.99665,-6.46312 0.8091,-1.70813 0.85571,-1.97388 0.85571,-4.87908 0,-2.9615 -0.0331,-3.13983 -0.91619,-4.93379 -2.84516,-5.77996 -10.02661,-8.34732 -15.98127,-5.7133 -7.429148,3.28627 -9.349014,13.07964 -3.672769,18.73507 3.120279,3.10885 7.551439,4.33944 11.717869,3.25422 z m 128.39506,-30.65031 c 2.31025,-0.61502 3.84809,-1.50255 5.55458,-3.2057 3.61238,-3.6053 4.4512,-8.45878 2.26816,-13.12382 -2.54939,-5.44792 -9.30508,-8.08806 -15.14847,-5.92005 -5.71929,2.12197 -8.91406,8.03716 -7.44148,13.77809 1.60909,6.27312 8.39725,10.16727 14.76721,8.47148 z m -56.38259,-12.46222 c 8.32719,-2.75078 10.76413,-13.2473 4.46952,-19.25134 -2.4254,-2.31344 -5.09144,-3.38265 -8.40594,-3.37119 -2.3083,0.008 -3.84644,0.34533 -5.60743,1.22983 -4.39091,2.20542 -6.80939,6.42333 -6.47558,11.29358 0.52638,7.67967 8.37156,12.6255 16.01943,10.09912 z"
       id="path22608"
       transform="matrix(0.26458333,0,0,0.26458333,-0.62600125,42.359418)" /><path
       style="fill:#0d7d34;fill-opacity:1;stroke-width:0.266691"
       d="m 91.214338,347.60006 c -7.294512,-1.31649 -13.486062,-6.88911 -15.356627,-13.82152 -0.768649,-2.84865 -0.64827,-7.63203 0.258763,-10.28223 1.52969,-4.46949 5.071072,-8.57447 9.259271,-10.73287 2.980887,-1.53621 4.860782,-2.08062 7.931651,-2.29698 l 2.43208,-0.17136 2.023231,-8.40077 2.02323,-8.40077 -1.523701,-0.8209 c -5.199001,-2.80101 -8.899418,-7.57068 -10.018709,-12.91369 -1.78296,-8.51106 3.22125,-17.53837 11.612326,-20.94797 5.272697,-2.14249 11.748947,-1.88019 16.821507,0.68129 6.37516,3.21926 10.34329,9.42313 10.48956,16.39966 0.0246,1.17344 0.0831,1.86351 0.12996,1.53347 0.0469,-0.33003 0.17379,-0.60005 0.28204,-0.60005 0.10825,0 4.49942,0.90008 9.75814,2.00018 5.25873,1.1001 9.70641,2.00019 9.88374,2.00019 0.17734,0 0.78647,-0.79348 1.35363,-1.76327 3.35398,-5.73506 9.08692,-9.2435 16.10789,-9.8577 l 2.00074,-0.17503 2.0716,-8.97003 c 1.13938,-4.93352 2.06921,-9.0535 2.06629,-9.15551 -0.003,-0.10201 -0.87538,-0.63944 -1.93881,-1.19428 -1.36772,-0.71361 -2.64262,-1.71286 -4.35683,-3.41485 -2.65943,-2.64046 -3.69287,-4.24614 -4.80986,-7.47318 -0.642,-1.85477 -0.74039,-2.55167 -0.75302,-5.33383 -0.0119,-2.63034 0.0962,-3.55651 0.60728,-5.20047 1.6106,-5.18085 5.0022,-9.12828 10.00953,-11.64993 2.8157,-1.41797 5.4044,-2.00894 8.83711,-2.01743 3.69071,-0.009 5.89521,0.50011 9.20084,2.12537 2.12624,1.0454 2.92299,1.63386 4.95574,3.66024 1.97089,1.96471 2.629,2.83693 3.5323,4.68145 1.26336,2.5798 1.80968,4.54563 2.10638,7.57952 l 0.20657,2.11236 9.20085,1.94775 c 5.06046,1.07126 9.34431,1.95087 9.51966,1.95468 0.17535,0.004 0.772,-0.86314 1.32589,-1.92657 1.43783,-2.76056 4.84274,-6.11951 7.68948,-7.58567 3.66043,-1.88524 5.58081,-2.34857 9.73422,-2.34857 3.02833,0 3.91811,0.0992 5.60052,0.62455 6.80553,2.12502 11.83159,7.19871 13.51531,13.64342 0.60371,2.31079 0.59987,6.51454 -0.008,8.80081 -1.75594,6.60381 -7.14931,11.89223 -14.04065,13.76742 -2.65288,0.72187 -7.76736,0.66196 -10.52228,-0.12324 -5.54478,-1.58037 -9.9746,-5.25954 -12.41419,-10.31054 -1.11401,-2.3065 -1.86581,-5.39775 -1.86581,-7.6719 v -1.42714 l -9.40086,-2.05512 c -5.17047,-1.13032 -9.48432,-2.05331 -9.58634,-2.05109 -0.10201,0.002 -0.62868,0.84746 -1.17038,1.87831 -0.54169,1.03085 -1.75675,2.70794 -2.70012,3.72687 -3.67984,3.97456 -8.45698,6.20931 -13.8021,6.45661 l -1.85663,0.0859 -2.31938,9.12118 -2.31937,9.12118 1.47625,0.67585 c 6.3843,2.92283 10.61891,9.12896 10.94802,16.04512 0.21105,4.43499 -0.8592,7.95708 -3.5739,11.76138 -2.43439,3.41149 -7.22227,6.45556 -11.66811,7.41841 -2.86685,0.62088 -7.82969,0.42166 -10.29011,-0.41308 -7.88528,-2.67521 -13.06784,-8.98192 -13.58749,-16.53474 l -0.15589,-2.26578 -9.8009,-2.24914 c -9.75632,-2.23891 -9.80093,-2.25226 -9.80723,-2.9347 -0.005,-0.50292 -0.17584,-0.27333 -0.64262,0.86185 -1.07572,2.61607 -2.32596,4.41219 -4.58021,6.57998 -3.46551,3.33261 -7.66354,5.15606 -12.7063,5.51911 l -2.33403,0.16803 -0.25118,0.96013 c -0.13816,0.52806 -0.98186,4.0804 -1.8749,7.89409 -0.89305,3.81368 -1.71597,7.1029 -1.82873,7.30938 -0.1524,0.27908 0.31175,0.63574 1.80871,1.38985 6.13682,3.09147 9.97863,8.88313 10.32789,15.56966 0.18115,3.46797 -0.33142,5.92274 -1.89335,9.0675 -2.79816,5.63373 -8.44909,9.61254 -14.933161,10.51439 -2.596314,0.36111 -3.756207,0.33486 -6.416381,-0.14524 z m 8.020721,-7.33001 c 6.602571,-2.45013 9.639071,-9.61791 6.698021,-15.81094 -3.56534,-7.50758 -13.588698,-9.16997 -19.544315,-3.24146 -3.758854,3.74175 -4.536302,8.83556 -2.066024,13.53651 2.730548,5.19624 9.262675,7.6124 14.912318,5.51589 z m 69.198571,-40.64127 c 3.2229,-0.40424 6.80073,-3.14869 8.4468,-6.47927 0.9782,-1.97927 1.00237,-2.10004 0.99563,-4.97594 -0.006,-2.73162 -0.0671,-3.07435 -0.82841,-4.68092 -2.0796,-4.38824 -6.12099,-6.93397 -11.00779,-6.93397 -3.50598,0 -6.11935,1.02855 -8.5822,3.3777 -5.81523,5.54679 -4.24419,15.02536 3.09128,18.65075 1.81632,0.89767 4.44772,1.45603 5.99966,1.27307 0.3667,-0.0432 1.21496,-0.14737 1.88503,-0.23142 z m -57.80837,-12.0002 c 3.60492,-0.93896 6.48109,-3.26357 7.99665,-6.46312 0.8091,-1.70813 0.85571,-1.97388 0.85571,-4.87908 0,-2.9615 -0.0331,-3.13983 -0.91619,-4.93379 -2.84516,-5.77996 -10.02661,-8.34732 -15.98127,-5.7133 -9.088477,4.02027 -9.312212,16.60628 -0.37609,21.1566 2.34047,1.19178 5.74871,1.52878 8.42119,0.83269 z m 127.98348,-30.57412 c 3.43234,-0.73456 6.87286,-3.38437 8.2828,-6.37924 3.84925,-8.17619 -2.78008,-17.49676 -11.86331,-16.67934 -7.49995,0.67493 -12.57203,7.50554 -10.77512,14.51091 1.57774,6.1509 7.91722,9.92557 14.35563,8.54767 z m -55.97101,-12.53841 c 8.32719,-2.75078 10.76413,-13.2473 4.46952,-19.25134 -2.682,-2.55819 -5.36282,-3.51984 -9.24612,-3.31672 -2.03499,0.10644 -2.76351,0.27325 -4.26783,0.97721 -4.81375,2.25263 -7.32471,6.38957 -6.975,11.49173 0.52638,7.67967 8.37156,12.6255 16.01943,10.09912 z"
       id="path22609"
       transform="matrix(0.26458333,0,0,0.26458333,-0.62600125,42.359418)" /><path
       style="fill:#0d7d34;fill-opacity:1;stroke-width:0.266691"
       d="m 92.67516,347.83997 c -7.525438,-0.85912 -13.965158,-5.91019 -16.472077,-12.92005 -0.908457,-2.54023 -1.133983,-7.13144 -0.486621,-9.90649 0.912969,-3.91361 3.658266,-8.08804 6.9072,-10.50291 3.321609,-2.46889 7.839739,-4.08158 11.4376,-4.0825 l 1.680846,-4.3e-4 2.022571,-8.46702 2.022571,-8.46701 -1.524358,-0.8209 c -5.172188,-2.78536 -8.902388,-7.59246 -10.020719,-12.91369 -1.526177,-7.26182 1.965567,-15.19308 8.506103,-19.32102 5.405584,-3.41165 12.410794,-4.04627 18.319524,-1.65963 3.80005,1.5349 7.54757,4.6535 9.4069,7.8282 1.81925,3.10626 2.92043,7.33332 2.73155,10.48554 -0.0308,0.51338 -0.004,0.6634 0.0591,0.33336 0.0633,-0.33003 0.199,-0.60005 0.3016,-0.60005 0.1026,0 4.66549,0.94042 10.13976,2.08983 l 9.95322,2.08984 0.25541,-0.6718 c 0.5377,-1.41424 2.72598,-4.34679 4.34963,-5.82898 3.30469,-3.01678 7.0709,-4.68513 11.75911,-5.20903 l 2.68865,-0.30044 2.06101,-8.95256 c 1.13356,-4.9239 2.05671,-9.03171 2.05145,-9.12846 -0.005,-0.0968 -0.91213,-0.67128 -2.01527,-1.27671 -4.14052,-2.27245 -7.64869,-6.46226 -9.08806,-10.85388 -0.67274,-2.05258 -0.77389,-2.76273 -0.77324,-5.42846 6e-4,-2.45938 0.12378,-3.46319 0.62181,-5.06713 1.98199,-6.38321 7.21214,-11.33742 13.83564,-13.1057 2.72803,-0.72831 7.16461,-0.77463 9.81069,-0.10244 8.55146,2.17235 14.65422,9.39136 14.87919,17.60072 0.0488,1.77934 0.12036,2.04155 0.5889,2.15683 1.57725,0.38806 18.16003,3.85154 18.44079,3.85154 0.18251,0 0.78421,-0.87008 1.33711,-1.93351 1.42408,-2.73907 4.8294,-6.09434 7.69128,-7.57825 3.64267,-1.88877 5.57311,-2.35599 9.73422,-2.35599 3.02833,0 3.91811,0.0992 5.60052,0.62455 6.82027,2.12962 11.76891,7.13042 13.50948,13.65186 0.6066,2.27281 0.5954,6.46686 -0.0235,8.79237 -1.75908,6.60974 -7.02085,11.7726 -14.01936,13.7558 -2.35927,0.66856 -7.69114,0.67565 -10.13427,0.0135 -2.59705,-0.70388 -5.77891,-2.34581 -7.81311,-4.03177 -4.04125,-3.34943 -6.42745,-8.02154 -6.77802,-13.27117 -0.0857,-1.28345 -0.22807,-2.33304 -0.31637,-2.33243 -0.0883,6.2e-4 -4.35016,-0.91639 -9.47081,-2.03779 -8.38406,-1.83608 -9.33918,-1.99605 -9.60088,-1.608 -0.15984,0.237 -0.71065,1.1778 -1.22403,2.09067 -3.13155,5.56836 -9.56186,9.34082 -16.40151,9.62224 l -1.60014,0.0658 -2.3082,9.15452 -2.30819,9.15451 1.22135,0.52354 c 3.63241,1.55703 7.26075,4.94363 9.11497,8.50768 5.65589,10.87132 -0.34014,23.52835 -12.62989,26.66046 -2.60298,0.66338 -6.59071,0.7127 -9.30555,0.11509 -2.6075,-0.57398 -6.34615,-2.42686 -8.49751,-4.21137 -3.90779,-3.24143 -6.62319,-8.7135 -6.62319,-13.34705 v -1.62747 l -9.86757,-2.24226 c -9.84106,-2.23625 -9.86759,-2.24412 -9.8739,-2.93029 -0.005,-0.51169 -0.16539,-0.30133 -0.62693,0.82078 -1.0821,2.6308 -2.05084,4.03015 -4.40684,6.36572 -3.58643,3.55533 -7.69893,5.39589 -12.89536,5.77136 l -2.33403,0.16864 -0.25575,0.96013 c -0.14066,0.52806 -0.9801,4.0204 -1.86543,7.76074 -0.88533,3.74034 -1.70906,7.03349 -1.83051,7.3181 -0.19058,0.44661 0.0193,0.63276 1.53255,1.35915 6.35015,3.04824 10.69921,9.85139 10.6829,16.71105 -0.0264,11.11851 -10.41332,19.99775 -21.86404,18.6905 z m 4.853986,-7.03586 c 3.674854,-0.764 6.787024,-3.21068 8.446264,-6.64015 0.91464,-1.89047 0.96772,-2.14647 0.96772,-4.6671 0,-3.20622 -0.47503,-4.78582 -2.10521,-7.00026 -2.07674,-2.82105 -5.368697,-4.55696 -9.095812,-4.79639 -2.495447,-0.16031 -4.921962,0.35932 -6.794048,1.45492 -6.838794,4.00225 -8.108532,12.80099 -2.638458,18.28337 2.947385,2.954 7.14404,4.21291 11.219544,3.36561 z m 71.686364,-41.3462 c 3.14631,-0.7107 6.29417,-3.35435 7.81366,-6.56213 0.79962,-1.68806 0.8538,-1.98859 0.8538,-4.73604 0,-2.73523 -0.0566,-3.05305 -0.83693,-4.7 -2.2146,-4.67404 -6.42186,-7.09628 -11.90892,-6.85629 -2.25102,0.0985 -2.7429,0.21692 -4.49416,1.08244 -6.00892,2.96977 -8.40416,9.705 -5.54528,15.5929 2.47388,5.09498 8.07139,7.54491 14.11783,6.17912 z m -58.54978,-11.83987 c 6.05579,-1.57733 9.72318,-6.94219 8.89338,-13.00975 -0.50315,-3.67914 -3.08225,-7.16543 -6.4756,-8.75337 -6.23882,-2.9195 -13.503662,-0.48327 -16.432716,5.51062 -0.873606,1.78771 -0.908686,1.97812 -0.908686,4.93206 0,2.96149 0.03311,3.13983 0.916183,4.93378 2.54762,5.17551 8.404649,7.846 14.007439,6.38666 z m 128.56683,-30.67503 c 5.75666,-1.49902 9.62385,-7.28641 8.68156,-12.99224 -0.42644,-2.58218 -1.44637,-4.58547 -3.26006,-6.40324 -5.92417,-5.93749 -16.03615,-4.28528 -19.63152,3.20763 -2.70495,5.63724 -0.40343,12.38204 5.19874,15.23534 2.6413,1.34526 6.09932,1.71078 9.01128,0.95251 z m -56.48212,-12.42708 c 7.95816,-2.56474 10.56138,-12.71574 4.81825,-18.78825 -2.47488,-2.61683 -5.34883,-3.84068 -9.01899,-3.84068 -4.91084,0 -8.92766,2.52328 -11.03825,6.93397 -0.77356,1.61658 -0.82951,1.93222 -0.82951,4.68 0,2.86263 0.0282,3.00363 0.99155,4.95369 2.75564,5.57824 8.90491,8.05038 15.07695,6.06127 z"
       id="path22605"
       transform="matrix(0.26458333,0,0,0.26458333,-0.62600125,42.359418)" /><path
       id="path12-6"
       style="fill:#96c11f;fill-opacity:1;stroke-width:0.264583"
       d="m 43.257428,113.5427 a 5.244339,5.0140996 0 0 0 -5.240507,5.01623 5.244339,5.0140996 0 0 0 5.245675,5.01158 5.244339,5.0140996 0 0 0 5.243091,-5.01364 v -0.005 a 5.244339,5.0140996 0 0 0 -5.248259,-5.009 z m 0.02739,1.99523 a 3.1721854,3.0698569 0 0 1 3.174483,3.06699 v 0.003 a 3.1721854,3.0698569 0 0 1 -3.171382,3.06958 3.1721854,3.0698569 0 0 1 -3.172933,-3.06803 3.1721854,3.0698569 0 0 1 3.169832,-3.07165 z" /><path
       id="path12-8"
       style="fill:#96c11f;fill-opacity:1;stroke-width:0.264583"
       d="m 46.600311,99.082781 a 5.244339,5.0140996 0 0 0 -5.240507,5.016229 5.244339,5.0140996 0 0 0 5.245675,5.01158 5.244339,5.0140996 0 0 0 5.243091,-5.01364 v -0.005 a 5.244339,5.0140996 0 0 0 -5.248259,-5.008999 z m 0.02739,1.995229 a 3.1721854,3.0698569 0 0 1 3.174483,3.06699 v 0.003 a 3.1721854,3.0698569 0 0 1 -3.171382,3.06958 3.1721854,3.0698569 0 0 1 -3.172933,-3.06803 3.1721854,3.0698569 0 0 1 3.169832,-3.07165 z" /><path
       id="path12-43"
       style="fill:#0d7d34;fill-opacity:1;stroke-width:0.264583"
       d="m 61.775128,102.29142 a 5.244339,5.0140996 0 0 0 -5.240507,5.01623 5.244339,5.0140996 0 0 0 5.245675,5.01158 5.244339,5.0140996 0 0 0 5.243091,-5.01364 v -0.005 a 5.244339,5.0140996 0 0 0 -5.248259,-5.009 z m 0.02739,1.99523 a 3.1721854,3.0698569 0 0 1 3.174483,3.06699 v 0.003 a 3.1721854,3.0698569 0 0 1 -3.171382,3.06958 3.1721854,3.0698569 0 0 1 -3.172933,-3.06803 3.1721854,3.0698569 0 0 1 3.169832,-3.07165 z" /><path
       style="fill:#0d7d34;fill-opacity:1;stroke-width:0.264583"
       d="m 24.657649,124.51147 1.094465,-4.55812 1.776895,0.42491 -1.055836,4.44224 z"
       id="path154" /><path
       style="fill:#96c11f;fill-opacity:1;stroke-width:0.264583"
       d="m 33.066929,115.54494 5.505897,1.15166 -0.394407,1.68805 -5.395462,-1.23054 z"
       id="path155" /><path
       style="fill:#96c11f;fill-opacity:1;stroke-width:0.264583"
       d="m 43.353016,113.90421 1.262097,-5.42701 1.830041,0.44173 -1.325203,5.28503 z"
       id="path156" /><path
       style="fill:#0d7d34;fill-opacity:1;stroke-width:0.264583"
       d="m 51.398881,104.34383 5.821421,1.23055 -0.268195,1.49873 -5.758315,-1.26209 z"
       id="path157" /><text
       xml:space="preserve"
       style="font-style:normal;font-variant:normal;font-weight:normal;font-stretch:normal;font-size:11.6417px;font-family:Geometos;-inkscape-font-specification:'Geometos, Normal';font-variant-ligatures:normal;font-variant-caps:normal;font-variant-numeric:normal;font-variant-east-asian:normal;text-align:start;writing-mode:lr-tb;direction:ltr;text-anchor:start;fill:#ffffff;stroke-width:0.264583"
       x="127.83228"
       y="133.77829"
       id="text2"><tspan
         id="tspan2"
         style="font-style:normal;font-variant:normal;font-weight:normal;font-stretch:normal;font-size:11.6417px;font-family:Geometos;-inkscape-font-specification:'Geometos, Normal';font-variant-ligatures:normal;font-variant-caps:normal;font-variant-numeric:normal;font-variant-east-asian:normal;fill:#ffffff;stroke-width:0.264583"
         x="127.83228"
         y="133.77829">R</tspan></text><text
       xml:space="preserve"
       style="font-style:normal;font-variant:normal;font-weight:normal;font-stretch:normal;font-size:11.6417px;font-family:Geometos;-inkscape-font-specification:'Geometos, Normal';font-variant-ligatures:normal;font-variant-caps:normal;font-variant-numeric:normal;font-variant-east-asian:normal;text-align:start;writing-mode:lr-tb;direction:ltr;text-anchor:start;fill:#ffffff;stroke-width:0.264583"
       x="155.97459"
       y="133.69907"
       id="text3"><tspan
         id="tspan3"
         style="fill:#ffffff;stroke-width:0.264583"
         x="155.97459"
         y="133.69907">S</tspan></text><text
       xml:space="preserve"
       style="font-style:normal;font-variant:normal;font-weight:normal;font-stretch:normal;font-size:11.9944px;font-family:Geometos;-inkscape-font-specification:'Geometos, Normal';font-variant-ligatures:normal;font-variant-caps:normal;font-variant-numeric:normal;font-variant-east-asian:normal;text-align:start;writing-mode:lr-tb;direction:ltr;text-anchor:start;fill:#ffffff;stroke-width:0.264583"
       x="169.14771"
       y="133.86986"
       id="text4"><tspan
         id="tspan4"
         style="font-style:normal;font-variant:normal;font-weight:normal;font-stretch:normal;font-size:11.9944px;font-family:Geometos;-inkscape-font-specification:'Geometos, Normal';font-variant-ligatures:normal;font-variant-caps:normal;font-variant-numeric:normal;font-variant-east-asian:normal;fill:#ffffff;stroke-width:0.264583"
         x="169.14771"
         y="133.86986">T</tspan></text><text
       xml:space="preserve"
       style="font-style:normal;font-variant:normal;font-weight:normal;font-stretch:normal;font-size:11.9944px;font-family:Geometos;-inkscape-font-specification:'Geometos, Normal';font-variant-ligatures:normal;font-variant-caps:normal;font-variant-numeric:normal;font-variant-east-asian:normal;text-align:start;writing-mode:lr-tb;direction:ltr;text-anchor:start;fill:#ffffff;stroke-width:0.264583"
       x="180.95862"
       y="134.06349"
       id="text5"><tspan
         id="tspan5"
         style="fill:#ffffff;stroke-width:0.264583"
         x="180.95862"
         y="134.06349">A</tspan></text><text
       xml:space="preserve"
       style="font-style:normal;font-variant:normal;font-weight:normal;font-stretch:normal;font-size:11.9944px;font-family:Geometos;-inkscape-font-specification:'Geometos, Normal';font-variant-ligatures:normal;font-variant-caps:normal;font-variant-numeric:normal;font-variant-east-asian:normal;text-align:start;writing-mode:lr-tb;direction:ltr;text-anchor:start;fill:#ffffff;stroke-width:0.264583"
       x="195.67386"
       y="133.94733"
       id="text6"><tspan
         id="tspan6"
         style="font-style:normal;font-variant:normal;font-weight:normal;font-stretch:normal;font-size:11.9944px;font-family:Geometos;-inkscape-font-specification:'Geometos, Normal';font-variant-ligatures:normal;font-variant-caps:normal;font-variant-numeric:normal;font-variant-east-asian:normal;fill:#ffffff;stroke-width:0.264583"
         x="195.67386"
         y="133.94733">N</tspan></text><text
       xml:space="preserve"
       style="font-style:normal;font-variant:normal;font-weight:normal;font-stretch:normal;font-size:11.0925px;font-family:'Crafty Girls';-inkscape-font-specification:'Crafty Girls, Normal';font-variant-ligatures:normal;font-variant-caps:normal;font-variant-numeric:normal;font-variant-east-asian:normal;text-align:start;writing-mode:lr-tb;direction:ltr;text-anchor:start;fill:#ffffff;stroke-width:0.277314"
       x="83.395378"
       y="124.7703"
       id="text7"
       transform="matrix(1.0266146,-0.0367416,0.03682067,0.97275757,0,0)"><tspan
         id="tspan7"
         style="font-style:normal;font-variant:normal;font-weight:normal;font-stretch:normal;font-size:11.0925px;font-family:'Crafty Girls';-inkscape-font-specification:'Crafty Girls, Normal';font-variant-ligatures:normal;font-variant-caps:normal;font-variant-numeric:normal;font-variant-east-asian:normal;fill:#ffffff;stroke-width:0.277314"
         x="83.395378"
         y="124.7703">Experimentera!</tspan></text><path
       id="path12"
       style="fill:#0d7d34;fill-opacity:1;stroke-width:0.264583"
       d="m 24.478092,124.43168 a 5.244339,5.0140996 0 0 0 -5.240507,5.01623 5.244339,5.0140996 0 0 0 5.245675,5.01158 5.244339,5.0140996 0 0 0 5.243091,-5.01364 v -0.005 a 5.244339,5.0140996 0 0 0 -5.248259,-5.009 z m 0.02739,1.99523 a 3.1721854,3.0698569 0 0 1 3.174483,3.06699 v 0.003 a 3.1721854,3.0698569 0 0 1 -3.171382,3.06958 3.1721854,3.0698569 0 0 1 -3.172933,-3.06803 3.1721854,3.0698569 0 0 1 3.169832,-3.07165 z" /><path
       id="path12-4"
       style="fill:#96c11f;fill-opacity:1;stroke-width:0.264583"
       d="m 27.82225,110.39994 a 5.244339,5.0140996 0 0 0 -5.240507,5.01623 5.244339,5.0140996 0 0 0 5.245675,5.01158 5.244339,5.0140996 0 0 0 5.243091,-5.01364 v -0.005 a 5.244339,5.0140996 0 0 0 -5.248259,-5.009 z m 0.02739,1.99523 a 3.1721854,3.0698569 0 0 1 3.174483,3.06699 v 0.003 a 3.1721854,3.0698569 0 0 1 -3.171382,3.06958 3.1721854,3.0698569 0 0 1 -3.172933,-3.06803 3.1721854,3.0698569 0 0 1 3.169832,-3.07165 z" /><text
       xml:space="preserve"
       style="font-style:normal;font-variant:normal;font-weight:normal;font-stretch:normal;font-size:11.9944px;font-family:Geometos;-inkscape-font-specification:'Geometos, Normal';font-variant-ligatures:normal;font-variant-caps:normal;font-variant-numeric:normal;font-variant-east-asian:normal;text-align:start;writing-mode:lr-tb;direction:ltr;text-anchor:start;fill:#ffffff;stroke-width:0.264583"
       x="3.2578344"
       y="133.86925"
       id="text22597"><tspan
         id="tspan22597"
         style="font-style:normal;font-variant:normal;font-weight:normal;font-stretch:normal;font-size:11.9944px;font-family:Geometos;-inkscape-font-specification:'Geometos, Normal';font-variant-ligatures:normal;font-variant-caps:normal;font-variant-numeric:normal;font-variant-east-asian:normal;fill:#ffffff;stroke-width:0.264583"
         x="3.2578344"
         y="133.86925">M</tspan></text><text
       xml:space="preserve"
       style="font-style:normal;font-variant:normal;font-weight:normal;font-stretch:normal;font-size:11.9944px;font-family:Geometos;-inkscape-font-specification:'Geometos, Normal';font-variant-ligatures:normal;font-variant-caps:normal;font-variant-numeric:normal;font-variant-east-asian:normal;text-align:start;writing-mode:lr-tb;direction:ltr;text-anchor:start;fill:#ffffff;stroke-width:0.264583"
       x="35.120544"
       y="133.95438"
       id="text22598"><tspan
         id="tspan22598"
         style="fill:#ffffff;stroke-width:0.264583"
         x="35.120544"
         y="133.95438">L</tspan></text><text
       xml:space="preserve"
       style="font-style:normal;font-variant:normal;font-weight:normal;font-stretch:normal;font-size:11.9944px;font-family:Geometos;-inkscape-font-specification:'Geometos, Normal';font-variant-ligatures:normal;font-variant-caps:normal;font-variant-numeric:normal;font-variant-east-asian:normal;text-align:start;writing-mode:lr-tb;direction:ltr;text-anchor:start;fill:#ffffff;stroke-width:0.264583"
       x="47.689781"
       y="134.08807"
       id="text22599"><tspan
         id="tspan22599"
         style="fill:#ffffff;stroke-width:0.264583"
         x="47.689781"
         y="134.08807">E</tspan></text><text
       xml:space="preserve"
       style="font-style:normal;font-variant:normal;font-weight:normal;font-stretch:normal;font-size:11.9944px;font-family:Geometos;-inkscape-font-specification:'Geometos, Normal';font-variant-ligatures:normal;font-variant-caps:normal;font-variant-numeric:normal;font-variant-east-asian:normal;text-align:start;writing-mode:lr-tb;direction:ltr;text-anchor:start;fill:#ffffff;stroke-width:0.264583"
       x="60.992306"
       y="133.94644"
       id="text22600"><tspan
         id="tspan22600"
         style="fill:#ffffff;stroke-width:0.264583"
         x="60.992306"
         y="133.94644">K</tspan></text><text
       xml:space="preserve"
       style="font-style:normal;font-variant:normal;font-weight:normal;font-stretch:normal;font-size:11.9944px;font-family:Geometos;-inkscape-font-specification:'Geometos, Normal';font-variant-ligatures:normal;font-variant-caps:normal;font-variant-numeric:normal;font-variant-east-asian:normal;text-align:start;writing-mode:lr-tb;direction:ltr;text-anchor:start;fill:#ffffff;stroke-width:0.264583"
       x="75.157539"
       y="134.15411"
       id="text22601"><tspan
         id="tspan22601"
         style="fill:#ffffff;stroke-width:0.264583"
         x="75.157539"
         y="134.15411">Y</tspan></text><text
       xml:space="preserve"
       style="font-style:normal;font-variant:normal;font-weight:normal;font-stretch:normal;font-size:11.9944px;font-family:Geometos;-inkscape-font-specification:'Geometos, Normal';font-variant-ligatures:normal;font-variant-caps:normal;font-variant-numeric:normal;font-variant-east-asian:normal;text-align:start;writing-mode:lr-tb;direction:ltr;text-anchor:start;fill:#ffffff;stroke-width:0.264583"
       x="89.147789"
       y="133.96527"
       id="text22602"><tspan
         id="tspan22602"
         style="fill:#ffffff;stroke-width:0.264583"
         x="89.147789"
         y="133.96527">L</tspan></text><text
       xml:space="preserve"
       style="font-style:normal;font-variant:normal;font-weight:normal;font-stretch:normal;font-size:11.9944px;font-family:Geometos;-inkscape-font-specification:'Geometos, Normal';font-variant-ligatures:normal;font-variant-caps:normal;font-variant-numeric:normal;font-variant-east-asian:normal;text-align:start;writing-mode:lr-tb;direction:ltr;text-anchor:start;fill:#ffffff;stroke-width:0.264583"
       x="100.95831"
       y="134.37566"
       id="text22603"><tspan
         id="tspan22603"
         style="fill:#ffffff;stroke-width:0.264583"
         x="100.95831"
         y="134.37566">V</tspan></text><text
       xml:space="preserve"
       style="font-style:normal;font-variant:normal;font-weight:normal;font-stretch:normal;font-size:11.9944px;font-family:Geometos;-inkscape-font-specification:'Geometos, Normal';font-variant-ligatures:normal;font-variant-caps:normal;font-variant-numeric:normal;font-variant-east-asian:normal;text-align:start;writing-mode:lr-tb;direction:ltr;text-anchor:start;fill:#ffffff;stroke-width:0.264583"
       x="114.81947"
       y="134.07291"
       id="text22604"><tspan
         id="tspan22604"
         style="fill:#ffffff;stroke-width:0.264583"
         x="114.81947"
         y="134.07291">E</tspan></text><text
       xml:space="preserve"
       style="font-style:normal;font-variant:normal;font-weight:normal;font-stretch:normal;font-size:11.9944px;font-family:Geometos;-inkscape-font-specification:'Geometos, Normal';font-variant-ligatures:normal;font-variant-caps:normal;font-variant-numeric:normal;font-variant-east-asian:normal;text-align:start;writing-mode:lr-tb;direction:ltr;text-anchor:start;fill:#ffffff;stroke-width:0.264583"
       x="141.9006"
       y="133.95547"
       id="text22605"><tspan
         id="tspan22605"
         style="fill:#ffffff;stroke-width:0.264583"
         x="141.9006"
         y="133.95547">K</tspan></text></g></svg>
