<?xml version="1.0" encoding="UTF-8" standalone="no"?>
<!-- Created with Inkscape (http://www.inkscape.org/) -->

<svg
   version="1.1"
   id="svg1"
   width="67"
   height="67"
   viewBox="0 0 67 67"
   sodipodi:docname="molen_favicon.svg"
   inkscape:version="1.4.3 (0d15f75042, 2025-12-25)"
   xmlns:inkscape="http://www.inkscape.org/namespaces/inkscape"
   xmlns:sodipodi="http://sodipodi.sourceforge.net/DTD/sodipodi-0.dtd"
   xmlns="http://www.w3.org/2000/svg"
   xmlns:svg="http://www.w3.org/2000/svg">
  <defs
     id="defs1" />
  <sodipodi:namedview
     id="namedview1"
     pagecolor="#ffffff"
     bordercolor="#000000"
     borderopacity="0.25"
     inkscape:showpageshadow="2"
     inkscape:pageopacity="0.0"
     inkscape:pagecheckerboard="0"
     inkscape:deskcolor="#d1d1d1"
     inkscape:zoom="7.9850746"
     inkscape:cx="33.374766"
     inkscape:cy="33.437383"
     inkscape:window-width="1920"
     inkscape:window-height="1080"
     inkscape:window-x="0"
     inkscape:window-y="0"
     inkscape:window-maximized="1"
     inkscape:current-layer="g1" />
  <g
     inkscape:groupmode="layer"
     inkscape:label="Image"
     id="g1">
    <rect
       style="fill:#0d7d34;fill-opacity:1"
       id="rect1"
       width="9.6429911"
       height="21.665421"
       x="37.500736"
       y="-7.7680044"
       transform="rotate(12.581775)" />
    <path
       id="path3"
       style="display:inline;fill:#0d7d34;fill-opacity:1;stroke-width:0.865823"
       d="M 32.999998,21.163745 A 23.213894,22.542454 0 0 0 9.7846237,43.706171 23.213894,22.542454 0 0 0 32.999998,66.248599 23.213894,22.542454 0 0 0 56.213507,43.706171 23.213894,22.542454 0 0 0 32.999998,21.163745 Z m 0,7.886755 A 14.556975,14.656474 0 0 1 47.556262,43.706171 14.556975,14.656474 0 0 1 32.999998,58.363665 14.556975,14.656474 0 0 1 18.441868,43.706171 14.556975,14.656474 0 0 1 32.999998,29.0505 Z" />
  </g>
</svg>
